<svg width="24" height="24" viewBox="0 0 1024 1024" xmlns="http://www.w3.org/2000/svg">
    <path fill="#000000" d="M492.373 20.482v76.401c0 11.311 9.169 20.48 20.48 20.48s20.48-9.169 20.48-20.48V20.482c0-11.311-9.169-20.48-20.48-20.48s-20.48 9.169-20.48 20.48zm-269.704 92.457l38.195 66.161c5.655 9.796 18.18 13.152 27.976 7.497s13.152-18.18 7.497-27.976L258.142 92.46c-5.655-9.796-18.18-13.152-27.976-7.497s-13.152 18.18-7.497 27.976zmM61.441 310.666l66.161 38.195c9.796 5.655 22.321 2.299 27.976-7.497s2.299-22.321-7.497-27.976L81.92 275.193c-9.796-5.655-22.321-2.299-27.976 7.497s-2.299 22.321 7.497 27.976z"/>
</svg>