<?xml version="1.0" standalone="no"?>
<!DOCTYPE svg PUBLIC "-//W3C//DTD SVG 20010904//EN"
 "http://www.w3.org/TR/2001/REC-SVG-20010904/DTD/svg10.dtd">
<svg version="1.0" xmlns="http://www.w3.org/2000/svg"
 width="2000.000000pt" height="2000.000000pt" viewBox="0 0 2000.000000 2000.000000"
 preserveAspectRatio="xMidYMid meet">
<metadata>
Created by potrace 1.14, written by Peter Selinger 2001-2017
</metadata>
<g transform="translate(0.000000,2000.000000) scale(0.100000,-0.100000)"
fill="#000000" stroke="none">
<path d="M11675 16195 c-159 -7 -291 -13 -291 -13 -1 -1 3 -23 9 -49 14 -69
134 -757 132 -761 -1 -1 -24 7 -50 19 -169 75 -324 -124 -196 -252 75 -75 181
-76 252 -1 22 23 39 53 43 75 5 26 -8 125 -44 326 -27 160 -50 292 -50 294 0
4 479 22 584 22 l40 0 42 -240 c23 -132 41 -241 40 -242 -1 -2 -20 6 -41 17
-113 57 -255 -20 -255 -138 0 -82 58 -148 147 -167 78 -16 184 52 198 128 5
26 -11 141 -54 390 -33 193 -71 409 -83 480 l-22 127 -55 -2 c-31 -1 -186 -7
-346 -13z m405 -200 c0 -22 -5 -24 -72 -29 -102 -8 -540 -27 -543 -24 -2 2 -5
12 -7 23 -3 19 8 21 302 40 168 12 308 19 313 17 4 -2 7 -14 7 -27z"/>
<path d="M9050 15684 c-463 -99 -820 -418 -1035 -926 l-43 -100 -63 -22 c-278
-98 -463 -294 -524 -556 -13 -56 -26 -84 -50 -110 -177 -190 -91 -515 261
-991 l63 -86 -10 -64 c-38 -225 65 -500 250 -672 348 -322 835 -210 946 217
20 79 20 233 1 326 -29 138 -129 314 -234 412 -63 59 -158 121 -220 144 -26
10 -48 18 -50 19 -1 1 -27 80 -57 176 -29 96 -72 222 -94 281 -37 100 -39 111
-31 167 9 63 40 143 60 156 6 4 46 -9 88 -28 108 -51 218 -64 404 -48 210 17
535 82 803 161 l69 20 -74 -75 c-41 -41 -71 -77 -68 -80 8 -8 144 21 212 44
77 27 175 81 247 137 112 86 265 281 320 408 13 31 27 56 30 56 3 0 28 -32 54
-70 27 -39 52 -67 56 -63 26 29 37 205 18 309 -26 147 -110 332 -216 472 -34
45 -56 82 -48 82 7 0 49 -7 92 -15 104 -20 104 -20 58 20 -209 184 -473 263
-788 235 -170 -15 -380 -64 -532 -126 -35 -14 55 85 133 148 78 62 76 65 -28
42z m-1113 -2291 c40 -58 70 -110 67 -114 -16 -26 -45 -2 -108 91 -42 61 -73
97 -80 93 -6 -4 -62 -39 -123 -79 l-113 -72 80 -113 c44 -62 80 -116 80 -119
0 -3 -6 -14 -13 -23 -11 -16 -23 -3 -104 113 l-92 131 47 29 c26 16 97 60 157
98 61 39 115 70 120 71 6 0 42 -47 82 -106z"/>
<path d="M7717 14705 c-128 -52 -235 -134 -318 -244 -73 -96 -132 -226 -102
-226 6 0 32 42 59 93 77 152 232 296 371 347 58 22 70 32 58 44 -6 6 -31 1
-68 -14z"/>
<path d="M9985 14091 c-16 -4 -49 -18 -73 -30 -36 -18 -43 -26 -40 -48 5 -41
30 -51 75 -29 42 21 152 32 206 22 32 -6 41 -16 90 -99 162 -273 275 -569 341
-896 14 -68 27 -125 29 -127 10 -10 80 119 103 190 35 106 37 270 6 387 -56
208 -203 399 -380 493 -61 31 -66 37 -66 67 -1 31 -5 35 -51 52 -55 21 -192
31 -240 18z"/>
<path d="M9093 13805 c-93 -29 -233 -149 -233 -200 0 -57 60 -57 100 0 33 46
132 113 178 120 75 12 110 46 82 80 -15 18 -70 18 -127 0z"/>
<path d="M9975 13691 c-94 -39 -65 -243 41 -287 102 -42 161 79 99 203 -35 70
-92 104 -140 84z"/>
<path d="M9760 13483 c0 -5 55 -139 123 -298 l123 -290 34 3 c65 7 162 54 214
104 l50 48 -25 26 c-50 54 -519 422 -519 407z"/>
<path d="M9137 13440 c-22 -25 -27 -42 -27 -83 1 -120 91 -213 175 -181 44 17
59 128 26 199 -25 55 -62 86 -108 92 -35 5 -42 2 -66 -27z"/>
<path d="M9414 12678 c6 -154 97 -263 270 -324 36 -13 209 -54 227 -54 3 0 19
35 34 78 15 42 43 114 62 160 20 45 34 84 32 86 -2 2 -22 7 -45 10 l-41 7 -20
-49 -21 -50 -79 14 c-101 19 -172 39 -253 70 -72 29 -156 86 -164 112 -3 9 -4
-18 -2 -60z"/>
<path d="M7379 12436 c-34 -30 -69 -70 -76 -88 -14 -33 -83 -227 -83 -233 0
-2 46 18 103 44 56 27 125 57 152 67 28 10 53 23 57 28 4 6 8 48 8 94 0 79 -2
85 -29 113 -16 16 -39 29 -50 29 -11 0 -48 -24 -82 -54z"/>
<path d="M7371 11925 c-112 -68 -125 -82 -189 -188 l-41 -68 61 -92 c77 -118
131 -225 170 -340 28 -82 32 -105 32 -209 l1 -117 35 34 36 35 28 -127 c16
-71 29 -137 30 -148 1 -16 -15 -24 -101 -50 l-103 -30 -14 -50 c-8 -27 -62
-232 -120 -455 -442 -1703 -548 -2108 -555 -2126 -7 -17 19 -58 165 -252 96
-128 178 -232 184 -232 11 0 110 159 110 176 0 7 4 16 10 19 9 6 272 -134 297
-158 8 -8 32 -284 72 -827 l60 -815 -25 -580 c-13 -319 -23 -591 -22 -605 3
-20 187 188 1035 1165 568 655 1102 1270 1187 1368 86 98 156 182 156 186 0 4
-28 17 -62 28 -90 29 -1771 673 -1781 682 -6 6 1571 1560 1592 1569 4 1 22
-62 41 -140 34 -141 35 -143 64 -146 29 -4 29 -3 23 40 -3 24 -19 102 -36 173
l-30 130 86 86 85 87 79 -97 c109 -134 202 -231 222 -231 9 0 21 9 27 20 9 17
1 30 -62 98 -59 63 -167 191 -209 248 -5 6 195 209 513 519 507 496 520 510
492 517 -16 4 -144 21 -284 38 -234 28 -256 32 -270 52 -87 128 -215 229 -419
330 l-143 71 6 40 c7 39 6 39 -21 32 -127 -31 -316 -38 -443 -16 -162 29 -347
107 -502 212 -32 22 -58 36 -58 31 0 -22 102 -163 159 -219 187 -187 488 -319
824 -364 94 -13 99 -15 118 -46 l20 -32 -62 -123 c-106 -213 -215 -357 -283
-374 -43 -10 -214 23 -561 112 -181 46 -343 87 -360 92 -34 10 -33 2 -15 152
12 96 9 444 -4 505 -2 11 -7 47 -11 80 l-7 61 -86 -8 c-353 -32 -764 -141
-905 -240 -16 -11 -30 -18 -32 -16 -2 2 -9 35 -15 73 -6 39 -25 124 -43 190
-27 100 -32 138 -32 228 0 59 -2 107 -5 106 -3 0 -52 -29 -109 -64z"/>
<path d="M4210 11521 c-11 -8 -16 -70 -26 -328 -7 -175 -13 -349 -13 -387 l-1
-69 -22 20 c-57 52 -151 69 -222 39 -38 -16 -80 -67 -90 -109 -11 -45 12 -108
54 -148 85 -81 214 -70 284 25 19 25 22 51 34 368 7 188 15 344 18 347 3 3 32
6 64 6 52 -1 73 -8 184 -64 l125 -63 88 4 c58 3 108 13 147 28 l59 23 -56 23
c-79 33 -141 72 -243 150 -97 74 -164 107 -258 129 -71 17 -105 18 -126 6z"/>
<path d="M14393 11095 c-57 -16 -134 -52 -144 -67 -3 -5 72 -157 167 -337 96
-181 176 -335 179 -342 4 -11 -9 -14 -63 -14 -58 0 -75 -4 -110 -28 -104 -68
-108 -197 -9 -271 45 -33 150 -30 205 7 23 15 51 45 62 67 38 75 33 89 -136
409 -114 216 -154 300 -147 311 5 8 31 26 57 39 41 21 70 26 180 31 116 6 137
10 186 35 47 24 170 135 170 154 0 3 -64 6 -142 7 -79 0 -201 3 -273 7 -101 6
-142 4 -182 -8z"/>
<path d="M11149 9435 c-646 -597 -1173 -1089 -1172 -1093 2 -6 756 -201 978
-252 44 -11 274 -68 512 -128 l432 -110 -5 102 -5 101 23 -36 c13 -19 124
-198 247 -397 123 -199 228 -362 232 -362 5 0 63 41 130 90 103 76 124 88 137
78 9 -7 97 -86 195 -175 98 -90 183 -163 189 -163 7 0 800 542 882 603 18 13
9 27 -149 236 -92 123 -163 226 -158 230 4 4 36 29 71 55 59 45 62 49 49 69
-7 12 -245 396 -527 852 -282 457 -576 931 -652 1055 -141 228 -212 330 -227
330 -5 0 -537 -488 -1182 -1085z"/>
<path d="M12757 10183 c-8 -13 731 -1228 746 -1228 7 0 11 7 11 15 -2 21 -727
1213 -741 1217 -6 2 -14 0 -16 -4z"/>
<path d="M13531 8893 c1 -23 100 -185 117 -191 24 -8 9 35 -42 117 -51 84 -77
109 -75 74z"/>
<path d="M13928 7298 c-190 -24 -353 -174 -412 -378 l-15 -55 27 35 c15 19 62
72 106 117 113 118 236 199 391 259 33 13 56 24 50 25 -28 5 -96 4 -147 -3z"/>
<path d="M10602 5504 l-1333 -1564 -129 0 -128 0 -82 -130 -82 -130 -63 0
c-72 0 -63 -12 -85 117 -23 131 -68 230 -133 290 -64 59 -104 77 -268 118
-128 33 -162 37 -309 42 -196 6 -285 -8 -397 -62 -76 -38 -148 -107 -184 -177
-12 -24 -26 -38 -39 -38 -10 0 -31 -5 -45 -12 -23 -10 -25 -16 -25 -74 l0 -62
-35 -12 -35 -12 0 -88 0 -89 38 -10 c47 -14 117 -14 165 0 l37 10 0 89 c0 53
-4 90 -10 90 -6 0 -10 32 -10 75 0 58 -3 77 -15 81 -13 5 -12 12 7 46 49 86
153 160 274 193 56 15 324 34 324 22 0 -3 -31 -10 -69 -17 -128 -21 -243 -93
-298 -187 -15 -25 -35 -46 -49 -49 -23 -6 -24 -10 -24 -79 0 -69 -1 -73 -25
-79 -24 -6 -25 -9 -25 -90 0 -62 4 -87 15 -96 22 -18 145 -25 189 -10 l36 12
0 79 c0 43 1 82 3 87 1 4 -8 11 -20 17 -21 9 -23 17 -23 78 0 67 -1 68 -30 78
-26 10 -28 13 -19 31 46 86 167 158 299 179 115 18 277 6 337 -25 134 -68 208
-197 238 -413 l7 -53 -36 0 -35 0 -3 128 -3 129 -206 -376 -206 -376 -59 0
c-189 1 -1599 16 -1804 20 -135 2 -515 7 -845 10 -330 3 -742 7 -915 10 -173
3 -571 7 -885 10 -313 3 -707 7 -875 10 -168 3 -595 7 -950 11 -355 3 -714 7
-797 8 l-153 2 0 -368 0 -368 378 -1 c207 -1 414 -4 458 -7 l82 -7 37 -45 c81
-97 233 -195 365 -234 85 -26 235 -46 341 -46 122 0 248 13 519 53 185 27 243
31 420 32 282 0 334 -12 810 -190 298 -111 403 -144 551 -174 228 -47 323 -55
609 -55 407 0 573 30 1061 189 330 108 460 135 638 135 175 0 307 -20 596 -92
132 -32 269 -62 305 -65 121 -10 316 39 497 127 131 64 323 193 393 264 l54
56 1222 0 1221 0 194 353 194 352 5 240 5 240 153 1 153 1 29 49 28 50 -93
1652 c-51 909 -94 1654 -96 1656 -2 2 -604 -700 -1337 -1560z m-2045 -1458
c47 -51 79 -124 103 -232 27 -124 27 -134 -10 -134 -26 0 -30 4 -35 38 -32
182 -76 300 -142 373 l-38 43 44 -25 c23 -13 59 -41 78 -63z m940 -294 c99 -3
145 0 186 12 30 9 58 16 61 16 9 0 7 -193 -2 -206 -14 -21 -50 -33 -133 -43
-46 -6 -87 -11 -91 -11 -5 0 -8 -34 -8 -76 l0 -75 -37 -17 c-30 -12 -71 -16
-183 -17 -126 0 -150 3 -185 20 l-40 20 -3 108 c-1 59 -1 107 1 107 3 0 22 -7
43 -16 83 -35 332 -27 392 12 22 15 23 17 7 34 -20 22 -88 40 -154 40 l-51 0
0 64 0 64 33 -16 c24 -13 66 -18 164 -20z m-681 -101 c8 -4 -40 -87 -132 -231
l-144 -225 0 -362 0 -363 165 0 c102 0 165 -4 165 -10 0 -13 -135 -120 -230
-183 -208 -137 -510 -239 -660 -224 -31 4 -126 24 -211 46 -296 77 -438 102
-620 108 -251 9 -350 -11 -789 -152 -401 -129 -578 -162 -900 -172 -455 -13
-750 46 -1329 267 -370 141 -493 166 -773 157 -120 -4 -248 -17 -418 -42 -472
-68 -711 -55 -925 52 -100 50 -260 182 -242 199 6 7 5400 -49 6027 -62 l295
-6 203 400 202 400 0 199 c0 110 2 202 4 204 8 7 300 8 312 0z"/>
<path d="M16161 4673 c185 -199 383 -402 387 -398 11 10 -70 117 -158 209 -86
90 -262 246 -277 246 -3 0 18 -26 48 -57z"/>
<path d="M15776 4588 c26 -24 136 -120 243 -215 107 -95 197 -170 199 -168 17
16 -92 143 -196 228 -77 63 -271 197 -285 197 -6 0 12 -19 39 -42z"/>
<path d="M15055 4352 c-63 -4 -292 -32 -385 -47 -47 -8 -398 -52 -780 -100
-432 -53 -706 -91 -723 -100 -16 -8 -45 -15 -65 -15 -46 0 -161 -27 -179 -42
-10 -8 -13 -55 -13 -199 l0 -188 -37 -6 c-259 -43 -345 -86 -317 -160 9 -22
86 -59 164 -78 112 -28 199 -38 375 -42 238 -6 426 16 556 64 153 57 120 140
-73 187 l-67 17 -3 171 c-2 94 -1 174 2 178 3 3 264 38 580 77 316 39 634 78
705 87 226 29 215 29 215 4 0 -20 4 -22 31 -16 17 3 41 6 53 6 42 0 45 10 31
90 -20 111 -23 115 -70 112z"/>
<path d="M15330 4019 c-525 -28 -949 -81 -1152 -145 -86 -27 -158 -62 -158
-76 0 -5 -49 -64 -110 -132 -76 -86 -108 -130 -104 -141 30 -78 566 -182 1134
-220 52 -3 111 -8 130 -10 278 -30 1366 -39 1845 -16 849 41 1326 110 1374
200 8 14 5 23 -15 42 -14 13 -62 81 -106 152 -45 70 -92 136 -105 147 -53 42
-373 123 -478 121 -27 0 -340 -32 -695 -70 -611 -66 -648 -69 -700 -55 -30 8
-103 16 -162 18 l-107 3 -102 97 -101 96 -116 -1 c-65 -1 -187 -6 -272 -10z
m597 -295 l121 -7 108 -115 108 -115 -429 6 c-237 3 -502 11 -590 17 -172 11
-488 40 -493 45 -2 1 50 12 115 24 725 134 873 159 903 156 19 -3 90 -7 157
-11z"/>
<path d="M5928 3953 c101 -2 263 -2 360 0 97 1 15 2 -183 2 -198 0 -278 -1
-177 -2z"/>
<path d="M8098 3943 c29 -2 74 -2 100 0 26 2 2 3 -53 3 -55 0 -76 -1 -47 -3z"/>
<path d="M2501 3886 c-22 -23 -32 -26 -97 -26 -72 0 -73 0 -76 -28 -2 -23 -44
-66 -208 -212 -113 -101 -207 -185 -209 -186 -2 -2 30 -4 72 -4 l76 0 169 153
c92 83 198 179 236 212 58 51 67 64 64 88 l-3 29 -24 -26z"/>
<path d="M5515 3674 c-121 -113 -245 -230 -275 -260 l-55 -54 730 0 730 1 260
253 259 253 -324 6 c-179 4 -501 7 -715 7 l-391 0 -219 -206z"/>
<path d="M1874 3710 c-93 -83 -170 -155 -172 -160 -2 -6 11 -10 29 -10 l32 0
-26 -20 c-20 -16 -40 -20 -101 -20 l-76 0 0 -35 0 -35 73 0 c69 0 76 2 112 33
67 56 435 389 435 393 0 2 -31 4 -69 4 l-69 0 -168 -150z"/>
<path d="M2590 3702 c-172 -155 -174 -157 -141 -160 32 -3 32 -4 15 -23 -14
-16 -31 -19 -96 -19 l-78 0 0 -35 0 -35 73 0 72 1 93 82 c244 217 371 333 371
340 1 4 -29 7 -66 7 l-68 -1 -175 -157z"/>
<path d="M3133 3853 c32 -5 34 -14 9 -36 -14 -13 -38 -17 -95 -17 l-77 0 0
-34 c0 -31 -13 -45 -165 -181 -91 -81 -165 -149 -165 -151 0 -2 33 -4 73 -4
l72 1 210 190 c116 104 221 201 235 214 l25 25 -75 -1 c-41 -1 -63 -4 -47 -6z"/>
<path d="M3315 3703 l-177 -158 37 -3 36 -3 -25 -20 c-19 -15 -40 -19 -100
-19 l-76 0 0 -35 0 -35 71 0 c68 0 72 1 122 43 61 49 427 378 427 384 0 1 -31
3 -69 3 l-69 0 -177 -157z"/>
<path d="M3760 3790 l-75 -69 34 -1 34 0 -23 -25 c-21 -23 -31 -25 -102 -25
l-78 0 0 -34 c0 -29 -10 -42 -82 -106 -46 -41 -90 -80 -98 -87 -12 -11 -2 -13
62 -13 l77 0 123 113 c68 61 170 155 228 206 58 52 107 98 108 103 2 4 -27 8
-65 8 l-68 0 -75 -70z"/>
<path d="M4043 3707 c-94 -83 -172 -155 -172 -159 -1 -5 14 -8 32 -8 l32 -1
-24 -19 c-19 -16 -38 -20 -102 -20 l-79 0 0 -35 0 -35 78 0 77 0 190 171 c105
94 210 190 235 215 l45 44 -70 0 -70 0 -172 -153z"/>
<path d="M4508 3810 l-53 -49 33 -1 c38 0 40 -5 10 -31 -18 -14 -40 -18 -100
-19 l-78 0 0 -33 c0 -31 -12 -44 -117 -138 l-117 -104 72 -3 72 -3 181 163
c100 90 207 186 238 215 l56 52 -72 1 -72 0 -53 -50z"/>
<path d="M4762 3702 c-169 -152 -173 -157 -142 -160 31 -3 31 -4 14 -23 -14
-16 -31 -19 -96 -19 l-78 0 0 -35 0 -35 71 0 c70 0 72 1 127 48 56 47 354 313
402 358 l25 24 -75 -1 -75 0 -173 -157z"/>
<path d="M5246 3825 l-39 -35 42 0 43 0 -30 -25 c-26 -22 -40 -25 -101 -25
l-71 0 0 -28 c0 -27 -50 -77 -254 -254 l-31 -27 76 -1 76 0 129 116 c71 63
171 154 222 202 52 48 98 89 103 90 5 2 9 8 9 13 0 5 -30 9 -67 9 -63 -1 -71
-3 -107 -35z"/>
<path d="M7898 3809 c-27 -10 -28 -12 -28 -94 0 -62 4 -86 15 -95 25 -21 154
-25 198 -7 l37 16 0 79 c0 60 -4 83 -16 93 -20 16 -169 22 -206 8z"/>
<path d="M1045 3670 l-190 -6 140 -2 c77 -2 170 -4 207 -4 37 -1 71 1 75 5 3
4 1 7 -5 7 -5 0 -16 1 -24 3 -7 1 -98 0 -203 -3z"/>
<path d="M18553 3664 c7 -7 529 -5 536 2 2 2 -119 4 -269 4 -150 0 -271 -3
-267 -6z"/>
<path d="M7143 3579 l-33 -10 0 -88 0 -89 31 -11 c18 -6 58 -11 89 -11 31 0
71 5 89 11 l31 11 0 89 0 88 -37 10 c-46 13 -126 13 -170 0z"/>
<path d="M7480 3577 l-35 -12 0 -85 c0 -80 1 -85 25 -98 33 -17 181 -12 203 7
13 10 17 31 17 93 l0 79 -35 15 c-41 17 -126 18 -175 1z"/>
<path d="M7803 3575 l-33 -14 0 -79 c0 -103 5 -107 125 -107 120 0 125 4 125
107 l0 79 -35 15 c-43 18 -140 18 -182 -1z"/>
<path d="M11850 2901 l0 -371 43 0 c23 0 1617 -18 3542 -40 1925 -22 3544 -40
3598 -40 l97 0 -2 368 -3 367 -1020 11 c-561 6 -1274 14 -1585 18 -1396 16
-3155 36 -3700 41 -327 3 -679 8 -782 11 l-188 6 0 -371z"/>
</g>
</svg>
